G04 EAGLE Gerber RS-274X export*
G75*
%MOMM*%
%FSLAX34Y34*%
%LPD*%
%INOUTINE*%
%IPPOS*%
%AMOC8*
5,1,8,0,0,1.08239X$1,22.5*%
G01*
%ADD10C,0.000000*%
%ADD11C,0.000100*%
%ADD12C,0.254000*%


D10*
X32500Y100000D02*
X573500Y100000D01*
X603500Y130000D02*
X603500Y1157500D01*
X573500Y1187500D02*
X32500Y1187500D01*
X2500Y1157500D02*
X2500Y130000D01*
D11*
X2509Y129275D01*
X2535Y128551D01*
X2579Y127827D01*
X2640Y127105D01*
X2719Y126384D01*
X2815Y125665D01*
X2928Y124949D01*
X3059Y124236D01*
X3207Y123526D01*
X3372Y122821D01*
X3554Y122119D01*
X3753Y121422D01*
X3968Y120729D01*
X4201Y120043D01*
X4450Y119362D01*
X4715Y118687D01*
X4996Y118019D01*
X5294Y117358D01*
X5607Y116704D01*
X5936Y116058D01*
X6281Y115420D01*
X6641Y114791D01*
X7016Y114171D01*
X7406Y113560D01*
X7810Y112958D01*
X8229Y112366D01*
X8663Y111785D01*
X9110Y111214D01*
X9571Y110655D01*
X10045Y110106D01*
X10532Y109570D01*
X11032Y109045D01*
X11545Y108532D01*
X12070Y108032D01*
X12606Y107545D01*
X13155Y107071D01*
X13714Y106610D01*
X14285Y106163D01*
X14866Y105729D01*
X15458Y105310D01*
X16060Y104906D01*
X16671Y104516D01*
X17291Y104141D01*
X17920Y103781D01*
X18558Y103436D01*
X19204Y103107D01*
X19858Y102794D01*
X20519Y102496D01*
X21187Y102215D01*
X21862Y101950D01*
X22543Y101701D01*
X23229Y101468D01*
X23922Y101253D01*
X24619Y101054D01*
X25321Y100872D01*
X26026Y100707D01*
X26736Y100559D01*
X27449Y100428D01*
X28165Y100315D01*
X28884Y100219D01*
X29605Y100140D01*
X30327Y100079D01*
X31051Y100035D01*
X31775Y100009D01*
X32500Y100000D01*
X573500Y100000D02*
X574225Y100009D01*
X574949Y100035D01*
X575673Y100079D01*
X576395Y100140D01*
X577116Y100219D01*
X577835Y100315D01*
X578551Y100428D01*
X579264Y100559D01*
X579974Y100707D01*
X580679Y100872D01*
X581381Y101054D01*
X582078Y101253D01*
X582771Y101468D01*
X583457Y101701D01*
X584138Y101950D01*
X584813Y102215D01*
X585481Y102496D01*
X586142Y102794D01*
X586796Y103107D01*
X587442Y103436D01*
X588080Y103781D01*
X588709Y104141D01*
X589329Y104516D01*
X589940Y104906D01*
X590542Y105310D01*
X591134Y105729D01*
X591715Y106163D01*
X592286Y106610D01*
X592845Y107071D01*
X593394Y107545D01*
X593930Y108032D01*
X594455Y108532D01*
X594968Y109045D01*
X595468Y109570D01*
X595955Y110106D01*
X596429Y110655D01*
X596890Y111214D01*
X597337Y111785D01*
X597771Y112366D01*
X598190Y112958D01*
X598594Y113560D01*
X598984Y114171D01*
X599359Y114791D01*
X599719Y115420D01*
X600064Y116058D01*
X600393Y116704D01*
X600706Y117358D01*
X601004Y118019D01*
X601285Y118687D01*
X601550Y119362D01*
X601799Y120043D01*
X602032Y120729D01*
X602247Y121422D01*
X602446Y122119D01*
X602628Y122821D01*
X602793Y123526D01*
X602941Y124236D01*
X603072Y124949D01*
X603185Y125665D01*
X603281Y126384D01*
X603360Y127105D01*
X603421Y127827D01*
X603465Y128551D01*
X603491Y129275D01*
X603500Y130000D01*
X603500Y1157500D02*
X603491Y1158225D01*
X603465Y1158949D01*
X603421Y1159673D01*
X603360Y1160395D01*
X603281Y1161116D01*
X603185Y1161835D01*
X603072Y1162551D01*
X602941Y1163264D01*
X602793Y1163974D01*
X602628Y1164679D01*
X602446Y1165381D01*
X602247Y1166078D01*
X602032Y1166771D01*
X601799Y1167457D01*
X601550Y1168138D01*
X601285Y1168813D01*
X601004Y1169481D01*
X600706Y1170142D01*
X600393Y1170796D01*
X600064Y1171442D01*
X599719Y1172080D01*
X599359Y1172709D01*
X598984Y1173329D01*
X598594Y1173940D01*
X598190Y1174542D01*
X597771Y1175134D01*
X597337Y1175715D01*
X596890Y1176286D01*
X596429Y1176845D01*
X595955Y1177394D01*
X595468Y1177930D01*
X594968Y1178455D01*
X594455Y1178968D01*
X593930Y1179468D01*
X593394Y1179955D01*
X592845Y1180429D01*
X592286Y1180890D01*
X591715Y1181337D01*
X591134Y1181771D01*
X590542Y1182190D01*
X589940Y1182594D01*
X589329Y1182984D01*
X588709Y1183359D01*
X588080Y1183719D01*
X587442Y1184064D01*
X586796Y1184393D01*
X586142Y1184706D01*
X585481Y1185004D01*
X584813Y1185285D01*
X584138Y1185550D01*
X583457Y1185799D01*
X582771Y1186032D01*
X582078Y1186247D01*
X581381Y1186446D01*
X580679Y1186628D01*
X579974Y1186793D01*
X579264Y1186941D01*
X578551Y1187072D01*
X577835Y1187185D01*
X577116Y1187281D01*
X576395Y1187360D01*
X575673Y1187421D01*
X574949Y1187465D01*
X574225Y1187491D01*
X573500Y1187500D01*
X32500Y1187500D02*
X31775Y1187491D01*
X31051Y1187465D01*
X30327Y1187421D01*
X29605Y1187360D01*
X28884Y1187281D01*
X28165Y1187185D01*
X27449Y1187072D01*
X26736Y1186941D01*
X26026Y1186793D01*
X25321Y1186628D01*
X24619Y1186446D01*
X23922Y1186247D01*
X23229Y1186032D01*
X22543Y1185799D01*
X21862Y1185550D01*
X21187Y1185285D01*
X20519Y1185004D01*
X19858Y1184706D01*
X19204Y1184393D01*
X18558Y1184064D01*
X17920Y1183719D01*
X17291Y1183359D01*
X16671Y1182984D01*
X16060Y1182594D01*
X15458Y1182190D01*
X14866Y1181771D01*
X14285Y1181337D01*
X13714Y1180890D01*
X13155Y1180429D01*
X12606Y1179955D01*
X12070Y1179468D01*
X11545Y1178968D01*
X11032Y1178455D01*
X10532Y1177930D01*
X10045Y1177394D01*
X9571Y1176845D01*
X9110Y1176286D01*
X8663Y1175715D01*
X8229Y1175134D01*
X7810Y1174542D01*
X7406Y1173940D01*
X7016Y1173329D01*
X6641Y1172709D01*
X6281Y1172080D01*
X5936Y1171442D01*
X5607Y1170796D01*
X5294Y1170142D01*
X4996Y1169481D01*
X4715Y1168813D01*
X4450Y1168138D01*
X4201Y1167457D01*
X3968Y1166771D01*
X3753Y1166078D01*
X3554Y1165381D01*
X3372Y1164679D01*
X3207Y1163974D01*
X3059Y1163264D01*
X2928Y1162551D01*
X2815Y1161835D01*
X2719Y1161116D01*
X2640Y1160395D01*
X2579Y1159673D01*
X2535Y1158949D01*
X2509Y1158225D01*
X2500Y1157500D01*
D12*
X2500Y130000D02*
X2614Y127385D01*
X2956Y124791D01*
X3522Y122235D01*
X4309Y119739D01*
X5311Y117321D01*
X6519Y115000D01*
X7925Y112793D01*
X9519Y110716D01*
X11287Y108787D01*
X13216Y107019D01*
X15293Y105425D01*
X17500Y104019D01*
X19821Y102811D01*
X22239Y101809D01*
X24735Y101022D01*
X27291Y100456D01*
X29885Y100114D01*
X32500Y100000D01*
X573500Y100000D01*
X576115Y100114D01*
X578709Y100456D01*
X581265Y101022D01*
X583761Y101809D01*
X586179Y102811D01*
X588500Y104019D01*
X590707Y105425D01*
X592784Y107019D01*
X594713Y108787D01*
X596481Y110716D01*
X598075Y112793D01*
X599481Y115000D01*
X600689Y117321D01*
X601691Y119739D01*
X602478Y122235D01*
X603044Y124791D01*
X603386Y127385D01*
X603500Y130000D01*
X603500Y1157500D01*
X603386Y1160115D01*
X603044Y1162709D01*
X602478Y1165265D01*
X601691Y1167761D01*
X600689Y1170179D01*
X599481Y1172500D01*
X598075Y1174707D01*
X596481Y1176784D01*
X594713Y1178713D01*
X592784Y1180481D01*
X590707Y1182075D01*
X588500Y1183481D01*
X586179Y1184689D01*
X583761Y1185691D01*
X581265Y1186478D01*
X578709Y1187044D01*
X576115Y1187386D01*
X573500Y1187500D01*
X32500Y1187500D01*
X29885Y1187386D01*
X27291Y1187044D01*
X24735Y1186478D01*
X22239Y1185691D01*
X19821Y1184689D01*
X17500Y1183481D01*
X15293Y1182075D01*
X13216Y1180481D01*
X11287Y1178713D01*
X9519Y1176784D01*
X7925Y1174707D01*
X6519Y1172500D01*
X5311Y1170179D01*
X4309Y1167761D01*
X3522Y1165265D01*
X2956Y1162709D01*
X2614Y1160115D01*
X2500Y1157500D01*
X2500Y130000D01*
M02*
