G04 EAGLE Gerber RS-274X export*
G75*
%MOMM*%
%FSLAX34Y34*%
%LPD*%
%INOUTINE*%
%IPPOS*%
%AMOC8*
5,1,8,0,0,1.08239X$1,22.5*%
G01*
%ADD10C,0.000000*%
%ADD11C,0.000009*%
%ADD12C,0.254000*%


D10*
X42500Y97500D02*
X568500Y97500D01*
X603500Y132500D02*
X603500Y1150000D01*
X568500Y1185000D02*
X568400Y1185000D01*
X37500Y1185000D01*
X2500Y1149900D02*
X2500Y141500D01*
D11*
X2500Y1149900D02*
X2509Y1150747D01*
X2539Y1151593D01*
X2588Y1152439D01*
X2659Y1153283D01*
X2750Y1154125D01*
X2861Y1154965D01*
X2992Y1155802D01*
X3143Y1156635D01*
X3315Y1157464D01*
X3507Y1158289D01*
X3718Y1159110D01*
X3949Y1159924D01*
X4200Y1160733D01*
X4470Y1161536D01*
X4760Y1162332D01*
X5069Y1163121D01*
X5396Y1163902D01*
X5743Y1164675D01*
X6108Y1165439D01*
X6492Y1166194D01*
X6893Y1166940D01*
X7313Y1167676D01*
X7750Y1168401D01*
X8204Y1169116D01*
X8676Y1169819D01*
X9165Y1170511D01*
X9670Y1171191D01*
X10191Y1171859D01*
X10729Y1172513D01*
X11282Y1173155D01*
X11850Y1173783D01*
X12433Y1174397D01*
X13031Y1174997D01*
X13644Y1175582D01*
X14270Y1176152D01*
X14910Y1176707D01*
X15563Y1177246D01*
X16229Y1177770D01*
X16908Y1178277D01*
X17598Y1178767D01*
X18300Y1179241D01*
X19014Y1179697D01*
X19738Y1180137D01*
X20473Y1180558D01*
X21217Y1180962D01*
X21971Y1181348D01*
X22735Y1181715D01*
X23506Y1182064D01*
X24287Y1182394D01*
X25074Y1182705D01*
X25869Y1182996D01*
X26671Y1183269D01*
X27480Y1183522D01*
X28294Y1183756D01*
X29113Y1183970D01*
X29938Y1184163D01*
X30767Y1184337D01*
X31600Y1184491D01*
X32436Y1184625D01*
X33276Y1184738D01*
X34117Y1184832D01*
X34961Y1184904D01*
X35807Y1184957D01*
X36653Y1184989D01*
X37500Y1185000D01*
X2500Y141500D02*
X2464Y140485D01*
X2452Y139469D01*
X2465Y138452D01*
X2503Y137437D01*
X2565Y136423D01*
X2651Y135410D01*
X2762Y134400D01*
X2898Y133393D01*
X3058Y132390D01*
X3241Y131391D01*
X3449Y130396D01*
X3681Y129407D01*
X3937Y128423D01*
X4217Y127446D01*
X4520Y126477D01*
X4846Y125514D01*
X5196Y124560D01*
X5568Y123615D01*
X5963Y122679D01*
X6381Y121752D01*
X6821Y120836D01*
X7283Y119931D01*
X7767Y119038D01*
X8272Y118156D01*
X8798Y117287D01*
X9345Y116431D01*
X9913Y115588D01*
X10501Y114759D01*
X11109Y113945D01*
X11736Y113146D01*
X12382Y112362D01*
X13048Y111593D01*
X13731Y110842D01*
X14433Y110106D01*
X15152Y109389D01*
X15888Y108688D01*
X16641Y108006D01*
X17410Y107342D01*
X18195Y106697D01*
X18995Y106070D01*
X19810Y105464D01*
X20640Y104877D01*
X21484Y104311D01*
X22341Y103765D01*
X23211Y103240D01*
X24093Y102736D01*
X24987Y102254D01*
X25893Y101793D01*
X26809Y101354D01*
X27736Y100938D01*
X28673Y100544D01*
X29619Y100173D01*
X30574Y99825D01*
X31536Y99500D01*
X32507Y99199D01*
X33484Y98921D01*
X34468Y98666D01*
X35457Y98436D01*
X36452Y98229D01*
X37452Y98047D01*
X38456Y97889D01*
X39463Y97755D01*
X40473Y97645D01*
X41486Y97560D01*
X42500Y97500D01*
X568500Y97500D02*
X569346Y97510D01*
X570191Y97541D01*
X571035Y97592D01*
X571878Y97663D01*
X572719Y97755D01*
X573557Y97867D01*
X574392Y98000D01*
X575224Y98152D01*
X576052Y98325D01*
X576876Y98517D01*
X577695Y98729D01*
X578508Y98961D01*
X579316Y99213D01*
X580117Y99484D01*
X580911Y99774D01*
X581698Y100084D01*
X582478Y100412D01*
X583249Y100759D01*
X584012Y101125D01*
X584765Y101509D01*
X585509Y101911D01*
X586244Y102331D01*
X586967Y102769D01*
X587680Y103224D01*
X588382Y103696D01*
X589072Y104184D01*
X589751Y104690D01*
X590416Y105211D01*
X591069Y105749D01*
X591709Y106302D01*
X592336Y106871D01*
X592948Y107454D01*
X593546Y108052D01*
X594129Y108664D01*
X594698Y109291D01*
X595251Y109931D01*
X595789Y110584D01*
X596310Y111249D01*
X596816Y111928D01*
X597304Y112618D01*
X597776Y113320D01*
X598231Y114033D01*
X598669Y114756D01*
X599089Y115491D01*
X599491Y116235D01*
X599875Y116988D01*
X600241Y117751D01*
X600588Y118522D01*
X600916Y119302D01*
X601226Y120089D01*
X601516Y120883D01*
X601787Y121684D01*
X602039Y122492D01*
X602271Y123305D01*
X602483Y124124D01*
X602675Y124948D01*
X602848Y125776D01*
X603000Y126608D01*
X603133Y127443D01*
X603245Y128281D01*
X603337Y129122D01*
X603408Y129965D01*
X603459Y130809D01*
X603490Y131654D01*
X603500Y132500D01*
X603500Y1150000D02*
X603489Y1150847D01*
X603457Y1151693D01*
X603404Y1152539D01*
X603332Y1153383D01*
X603238Y1154224D01*
X603125Y1155064D01*
X602991Y1155900D01*
X602837Y1156733D01*
X602663Y1157562D01*
X602470Y1158387D01*
X602256Y1159206D01*
X602022Y1160020D01*
X601769Y1160829D01*
X601496Y1161631D01*
X601205Y1162426D01*
X600894Y1163213D01*
X600564Y1163994D01*
X600215Y1164765D01*
X599848Y1165529D01*
X599462Y1166283D01*
X599058Y1167027D01*
X598637Y1167762D01*
X598197Y1168486D01*
X597741Y1169200D01*
X597267Y1169902D01*
X596777Y1170592D01*
X596270Y1171271D01*
X595746Y1171937D01*
X595207Y1172590D01*
X594652Y1173230D01*
X594082Y1173856D01*
X593497Y1174469D01*
X592897Y1175067D01*
X592283Y1175650D01*
X591655Y1176218D01*
X591013Y1176771D01*
X590359Y1177309D01*
X589691Y1177830D01*
X589011Y1178335D01*
X588319Y1178824D01*
X587616Y1179296D01*
X586901Y1179750D01*
X586176Y1180187D01*
X585440Y1180607D01*
X584694Y1181008D01*
X583939Y1181392D01*
X583175Y1181757D01*
X582402Y1182104D01*
X581621Y1182431D01*
X580832Y1182740D01*
X580036Y1183030D01*
X579233Y1183300D01*
X578424Y1183551D01*
X577610Y1183782D01*
X576789Y1183993D01*
X575964Y1184185D01*
X575135Y1184357D01*
X574302Y1184508D01*
X573465Y1184639D01*
X572625Y1184750D01*
X571783Y1184841D01*
X570939Y1184912D01*
X570093Y1184961D01*
X569247Y1184991D01*
X568400Y1185000D01*
D12*
X2500Y141500D02*
X2486Y137832D01*
X2791Y134176D01*
X3413Y130561D01*
X4349Y127015D01*
X5590Y123563D01*
X7127Y120232D01*
X8948Y117048D01*
X11041Y114035D01*
X13387Y111216D01*
X15971Y108612D01*
X18772Y106243D01*
X21768Y104127D01*
X24937Y102280D01*
X28256Y100717D01*
X31698Y99449D01*
X35237Y98485D01*
X38847Y97834D01*
X42500Y97500D01*
X568500Y97500D01*
X571550Y97633D01*
X574578Y98032D01*
X577559Y98693D01*
X580471Y99611D01*
X583292Y100779D01*
X586000Y102189D01*
X588575Y103830D01*
X590998Y105688D01*
X593249Y107751D01*
X595312Y110002D01*
X597170Y112425D01*
X598811Y115000D01*
X600221Y117708D01*
X601389Y120529D01*
X602307Y123441D01*
X602968Y126422D01*
X603367Y129450D01*
X603500Y132500D01*
X603500Y1150000D01*
X603362Y1153055D01*
X602959Y1156086D01*
X602293Y1159070D01*
X601369Y1161985D01*
X600195Y1164808D01*
X598779Y1167518D01*
X597133Y1170095D01*
X595268Y1172518D01*
X593199Y1174769D01*
X590941Y1176832D01*
X588513Y1178690D01*
X585932Y1180329D01*
X583217Y1181737D01*
X580391Y1182903D01*
X577473Y1183819D01*
X574487Y1184476D01*
X571455Y1184871D01*
X568400Y1185000D01*
X37500Y1185000D01*
X34445Y1184862D01*
X31414Y1184459D01*
X28430Y1183793D01*
X25515Y1182869D01*
X22692Y1181695D01*
X19982Y1180279D01*
X17405Y1178633D01*
X14982Y1176768D01*
X12731Y1174699D01*
X10668Y1172441D01*
X8810Y1170013D01*
X7171Y1167432D01*
X5763Y1164717D01*
X4597Y1161891D01*
X3681Y1158973D01*
X3024Y1155987D01*
X2629Y1152955D01*
X2500Y1149900D01*
X2500Y141500D01*
M02*
