G04 EAGLE Gerber RS-274X export*
G75*
%MOMM*%
%FSLAX34Y34*%
%LPD*%
%INOUTINE*%
%IPPOS*%
%AMOC8*
5,1,8,0,0,1.08239X$1,22.5*%
G01*
%ADD10C,0.000000*%
%ADD11C,0.000009*%
%ADD12C,0.254000*%


D10*
X27500Y95000D02*
X885000Y95000D01*
X910500Y120500D02*
X910500Y1165000D01*
X885000Y1190000D02*
X27500Y1190000D01*
X2500Y1165000D02*
X2500Y120000D01*
D11*
X2500Y1165000D02*
X2507Y1165604D01*
X2529Y1166208D01*
X2566Y1166811D01*
X2617Y1167413D01*
X2682Y1168013D01*
X2762Y1168612D01*
X2857Y1169209D01*
X2966Y1169803D01*
X3089Y1170395D01*
X3226Y1170983D01*
X3378Y1171568D01*
X3544Y1172149D01*
X3724Y1172725D01*
X3917Y1173298D01*
X4125Y1173865D01*
X4346Y1174427D01*
X4580Y1174984D01*
X4828Y1175535D01*
X5089Y1176080D01*
X5364Y1176618D01*
X5651Y1177150D01*
X5951Y1177674D01*
X6263Y1178191D01*
X6588Y1178700D01*
X6925Y1179202D01*
X7275Y1179695D01*
X7636Y1180179D01*
X8008Y1180655D01*
X8392Y1181121D01*
X8787Y1181578D01*
X9193Y1182025D01*
X9610Y1182463D01*
X10037Y1182890D01*
X10475Y1183307D01*
X10922Y1183713D01*
X11379Y1184108D01*
X11845Y1184492D01*
X12321Y1184864D01*
X12805Y1185225D01*
X13298Y1185575D01*
X13800Y1185912D01*
X14309Y1186237D01*
X14826Y1186549D01*
X15350Y1186849D01*
X15882Y1187136D01*
X16420Y1187411D01*
X16965Y1187672D01*
X17516Y1187920D01*
X18073Y1188154D01*
X18635Y1188375D01*
X19202Y1188583D01*
X19775Y1188776D01*
X20351Y1188956D01*
X20932Y1189122D01*
X21517Y1189274D01*
X22105Y1189411D01*
X22697Y1189534D01*
X23291Y1189643D01*
X23888Y1189738D01*
X24487Y1189818D01*
X25087Y1189883D01*
X25689Y1189934D01*
X26292Y1189971D01*
X26896Y1189993D01*
X27500Y1190000D01*
X885000Y1190000D02*
X885610Y1189998D01*
X886220Y1189982D01*
X886830Y1189952D01*
X887438Y1189906D01*
X888045Y1189846D01*
X888651Y1189771D01*
X889255Y1189681D01*
X889856Y1189577D01*
X890454Y1189459D01*
X891050Y1189326D01*
X891642Y1189179D01*
X892231Y1189017D01*
X892815Y1188841D01*
X893395Y1188651D01*
X893970Y1188448D01*
X894540Y1188230D01*
X895105Y1187999D01*
X895664Y1187754D01*
X896216Y1187495D01*
X896763Y1187224D01*
X897302Y1186939D01*
X897835Y1186641D01*
X898360Y1186331D01*
X898878Y1186008D01*
X899388Y1185672D01*
X899889Y1185324D01*
X900382Y1184965D01*
X900866Y1184593D01*
X901341Y1184210D01*
X901807Y1183815D01*
X902262Y1183410D01*
X902708Y1182993D01*
X903144Y1182566D01*
X903569Y1182129D01*
X903984Y1181681D01*
X904388Y1181223D01*
X904780Y1180756D01*
X905161Y1180279D01*
X905531Y1179794D01*
X905888Y1179299D01*
X906234Y1178796D01*
X906567Y1178285D01*
X906888Y1177766D01*
X907196Y1177239D01*
X907491Y1176706D01*
X907774Y1176165D01*
X908043Y1175617D01*
X908299Y1175063D01*
X908541Y1174503D01*
X908770Y1173937D01*
X908985Y1173366D01*
X909187Y1172790D01*
X909374Y1172210D01*
X909547Y1171625D01*
X909706Y1171035D01*
X909851Y1170443D01*
X909981Y1169846D01*
X910097Y1169247D01*
X910199Y1168646D01*
X910286Y1168042D01*
X910358Y1167436D01*
X910415Y1166828D01*
X910458Y1166220D01*
X910486Y1165610D01*
X910500Y1165000D01*
X910500Y120500D02*
X910493Y119884D01*
X910470Y119268D01*
X910433Y118653D01*
X910381Y118039D01*
X910314Y117426D01*
X910232Y116816D01*
X910136Y116207D01*
X910025Y115601D01*
X909899Y114998D01*
X909759Y114397D01*
X909604Y113801D01*
X909435Y113208D01*
X909252Y112620D01*
X909054Y112036D01*
X908843Y111458D01*
X908617Y110884D01*
X908378Y110316D01*
X908125Y109754D01*
X907859Y109199D01*
X907579Y108650D01*
X907286Y108107D01*
X906980Y107573D01*
X906661Y107045D01*
X906330Y106526D01*
X905986Y106014D01*
X905630Y105511D01*
X905262Y105017D01*
X904882Y104532D01*
X904490Y104057D01*
X904087Y103590D01*
X903673Y103134D01*
X903248Y102688D01*
X902812Y102252D01*
X902366Y101827D01*
X901910Y101413D01*
X901443Y101010D01*
X900968Y100618D01*
X900483Y100238D01*
X899989Y99870D01*
X899486Y99514D01*
X898974Y99170D01*
X898455Y98839D01*
X897927Y98520D01*
X897393Y98214D01*
X896850Y97921D01*
X896301Y97641D01*
X895746Y97375D01*
X895184Y97122D01*
X894616Y96883D01*
X894042Y96657D01*
X893464Y96446D01*
X892880Y96248D01*
X892292Y96065D01*
X891699Y95896D01*
X891103Y95741D01*
X890502Y95601D01*
X889899Y95475D01*
X889293Y95364D01*
X888684Y95268D01*
X888074Y95186D01*
X887461Y95119D01*
X886847Y95067D01*
X886232Y95030D01*
X885616Y95007D01*
X885000Y95000D01*
X27500Y95000D02*
X26896Y95007D01*
X26292Y95029D01*
X25689Y95066D01*
X25087Y95117D01*
X24487Y95182D01*
X23888Y95262D01*
X23291Y95357D01*
X22697Y95466D01*
X22105Y95589D01*
X21517Y95726D01*
X20932Y95878D01*
X20351Y96044D01*
X19775Y96224D01*
X19202Y96417D01*
X18635Y96625D01*
X18073Y96846D01*
X17516Y97080D01*
X16965Y97328D01*
X16420Y97589D01*
X15882Y97864D01*
X15350Y98151D01*
X14826Y98451D01*
X14309Y98763D01*
X13800Y99088D01*
X13298Y99425D01*
X12805Y99775D01*
X12321Y100136D01*
X11845Y100508D01*
X11379Y100892D01*
X10922Y101287D01*
X10475Y101693D01*
X10037Y102110D01*
X9610Y102537D01*
X9193Y102975D01*
X8787Y103422D01*
X8392Y103879D01*
X8008Y104345D01*
X7636Y104821D01*
X7275Y105305D01*
X6925Y105798D01*
X6588Y106300D01*
X6263Y106809D01*
X5951Y107326D01*
X5651Y107850D01*
X5364Y108382D01*
X5089Y108920D01*
X4828Y109465D01*
X4580Y110016D01*
X4346Y110573D01*
X4125Y111135D01*
X3917Y111702D01*
X3724Y112275D01*
X3544Y112851D01*
X3378Y113432D01*
X3226Y114017D01*
X3089Y114605D01*
X2966Y115197D01*
X2857Y115791D01*
X2762Y116388D01*
X2682Y116987D01*
X2617Y117587D01*
X2566Y118189D01*
X2529Y118792D01*
X2507Y119396D01*
X2500Y120000D01*
D12*
X2500Y120000D02*
X2595Y117821D01*
X2880Y115659D01*
X3352Y113530D01*
X4008Y111450D01*
X4842Y109435D01*
X5849Y107500D01*
X7021Y105661D01*
X8349Y103930D01*
X9822Y102322D01*
X11430Y100849D01*
X13161Y99521D01*
X15000Y98349D01*
X16935Y97342D01*
X18950Y96508D01*
X21030Y95852D01*
X23159Y95380D01*
X25321Y95095D01*
X27500Y95000D01*
X885000Y95000D01*
X887222Y95097D01*
X889428Y95387D01*
X891600Y95869D01*
X893722Y96538D01*
X895777Y97389D01*
X897750Y98416D01*
X899626Y99612D01*
X901391Y100966D01*
X903031Y102469D01*
X904534Y104109D01*
X905888Y105874D01*
X907084Y107750D01*
X908111Y109723D01*
X908962Y111779D01*
X909631Y113900D01*
X910113Y116072D01*
X910403Y118278D01*
X910500Y120500D01*
X910500Y1165000D01*
X910382Y1167200D01*
X910073Y1169381D01*
X909575Y1171527D01*
X908892Y1173621D01*
X908029Y1175648D01*
X906992Y1177592D01*
X905790Y1179438D01*
X904432Y1181172D01*
X902928Y1182781D01*
X901289Y1184253D01*
X899528Y1185577D01*
X897659Y1186742D01*
X895695Y1187740D01*
X893651Y1188563D01*
X891544Y1189204D01*
X889388Y1189660D01*
X887202Y1189926D01*
X885000Y1190000D01*
X27500Y1190000D01*
X25321Y1189905D01*
X23159Y1189620D01*
X21030Y1189148D01*
X18950Y1188492D01*
X16935Y1187658D01*
X15000Y1186651D01*
X13161Y1185479D01*
X11430Y1184151D01*
X9822Y1182678D01*
X8349Y1181070D01*
X7021Y1179339D01*
X5849Y1177500D01*
X4842Y1175565D01*
X4008Y1173551D01*
X3352Y1171470D01*
X2880Y1169341D01*
X2595Y1167179D01*
X2500Y1165000D01*
X2500Y120000D01*
M02*
